<svg width="24" height="24" viewBox="0 0 24 24" fill="none" xmlns="http://www.w3.org/2000/svg">
<path fill-rule="evenodd" clip-rule="evenodd" d="M4 3C3.44772 3 3 3.44772 3 4V20C3 20.5523 3.44772 21 4 21H20C20.5523 21 21 20.5523 21 20V4C21 3.44772 20.5523 3 20 3H4ZM19 5H9.61235V19H19V5Z" fill="#B6C2CD"/>
<path fill-rule="evenodd" clip-rule="evenodd" d="M16.109 8.41349C15.875 8.18118 15.4974 8.18118 15.2635 8.41349L12.5185 11.1391C12.0402 11.614 12.0402 12.3857 12.5185 12.8605L15.2635 15.5861C15.4974 15.8184 15.875 15.8184 16.109 15.5861L16.6931 15.0062C16.8065 14.8935 16.8703 14.7403 16.8703 14.5804C16.8703 14.4205 16.8065 14.2673 16.6931 14.1546L14.5229 11.9998L16.6931 9.84497C16.8065 9.73233 16.8703 9.57907 16.8703 9.4192C16.8703 9.25933 16.8065 9.10608 16.6931 8.99344L16.109 8.41349Z" fill="#324558"/>
</svg>
