<svg width="24" height="24" viewBox="0 0 24 24" fill="none" xmlns="http://www.w3.org/2000/svg">
<path d="M2.5335 7.90005C2.26683 7.70005 2.26683 7.30005 2.5335 7.10005L7.20016 3.60005C7.52978 3.35284 8.00016 3.58803 8.00016 4.00005V6.5H21.0002V8.5H8.00016V11.0001C8.00016 11.4121 7.52978 11.6473 7.20016 11.4001L2.5335 7.90005Z" fill="#324558"/>
<path d="M21.4669 16.9001C21.7335 16.7001 21.7335 16.3001 21.4669 16.1001L16.8002 12.6001C16.4706 12.3528 16.0002 12.588 16.0002 13.0001V15.5H3.00018V17.5H16.0002V20.0001C16.0002 20.4121 16.4706 20.6473 16.8002 20.4001L21.4669 16.9001Z" fill="#324558"/>
</svg>
