<svg width="16" height="16" viewBox="0 0 16 16" fill="none" xmlns="http://www.w3.org/2000/svg">
<path fill-rule="evenodd" clip-rule="evenodd" d="M14 8C14 11.3137 11.3137 14 8 14C4.68629 14 2 11.3137 2 8C2 4.68629 4.68629 2 8 2C11.3137 2 14 4.68629 14 8ZM8.87547 11.2964C8.87547 11.7793 8.48399 12.1708 8.00107 12.1708C7.51815 12.1708 7.12667 11.7793 7.12667 11.2964C7.12667 10.8135 7.51815 10.422 8.00107 10.422C8.48399 10.422 8.87547 10.8135 8.87547 11.2964ZM5.76025 5.78534L7.06668 6.05181C7.16887 5.55083 7.52506 5.26257 8.04668 5.26257C8.50179 5.26257 8.86919 5.53092 8.93334 6.02344C8.98197 6.39689 8.89723 6.57059 8.52642 6.94762C8.51109 6.9632 8.47088 7.00364 8.43015 7.04458C8.38917 7.08579 8.34766 7.12752 8.33051 7.14495C7.65154 7.83461 7.33333 8.43738 7.33333 9.42798H8.66667C8.66667 8.8429 8.82475 8.54345 9.28065 8.08037C9.2948 8.066 9.33125 8.02935 9.36956 7.99083C9.41283 7.94732 9.45848 7.90143 9.47703 7.88256C10.1068 7.24222 10.3672 6.70857 10.2555 5.85124C10.0976 4.6385 9.12649 3.92924 8.04668 3.92924C6.89385 3.92924 5.98956 4.66105 5.76025 5.78534Z" fill="#E0992C"/>
<path fill-rule="evenodd" clip-rule="evenodd" d="M5.76025 5.78579L7.06669 6.05225C7.16887 5.55128 7.52507 5.26302 8.04669 5.26302C8.50179 5.26302 8.8692 5.53137 8.93334 6.02389C8.98198 6.39734 8.89723 6.57104 8.52642 6.94807C8.51109 6.96365 8.47086 7.00411 8.43012 7.04507C8.38914 7.08627 8.34766 7.12797 8.33051 7.1454C7.65154 7.83506 7.33334 8.43783 7.33334 9.42843H8.66667C8.66667 8.84335 8.82475 8.5439 9.28066 8.08081C9.2948 8.06645 9.33125 8.0298 9.36956 7.99128C9.41284 7.94777 9.45848 7.90187 9.47704 7.88301C10.1068 7.24267 10.3672 6.70902 10.2555 5.85169C10.0976 4.63895 9.1265 3.92969 8.04669 3.92969C6.89386 3.92969 5.98957 4.6615 5.76025 5.78579ZM8.00103 12.1713C8.48395 12.1713 8.87543 11.7798 8.87543 11.2969C8.87543 10.8139 8.48395 10.4225 8.00103 10.4225C7.51811 10.4225 7.12663 10.8139 7.12663 11.2969C7.12663 11.7798 7.51811 12.1713 8.00103 12.1713Z" fill="white"/>
</svg>
