<svg width="24" height="25" viewBox="0 0 24 25" fill="none" xmlns="http://www.w3.org/2000/svg">
<path fill-rule="evenodd" clip-rule="evenodd" d="M16.4266 6.84526C15.7521 5.69577 15.908 4.19346 16.8944 3.20711C18.066 2.03554 19.9655 2.03554 21.137 3.20711C22.3086 4.37868 22.3086 6.27818 21.137 7.44975C20.1465 8.4403 18.6356 8.59335 17.4843 7.90892L16.0515 9.34164C17.0213 10.8146 17.0096 12.7438 16.0165 14.2058L17.3155 15.3497C17.7957 15.0233 18.3756 14.8325 19 14.8325C20.6569 14.8325 22 16.1757 22 17.8325C22 19.4894 20.6569 20.8325 19 20.8325C17.3431 20.8325 16 19.4894 16 17.8325C16 17.344 16.1168 16.8828 16.3239 16.4752L14.9735 15.286C13.4978 16.3667 11.4988 16.4081 9.98302 15.4102L8.44802 16.9451C8.7974 17.4897 9 18.1375 9 18.8325C9 20.7655 7.433 22.3325 5.5 22.3325C3.567 22.3325 2 20.7655 2 18.8325C2 16.8995 3.567 15.3325 5.5 15.3325C6.19505 15.3325 6.84278 15.5351 7.38736 15.8845L8.88853 14.3833C7.8398 12.9942 7.72753 11.123 8.55171 9.63072L7.39885 8.61547C6.64961 8.99097 5.71365 8.86617 5.08853 8.24106C4.30748 7.46001 4.30748 6.19368 5.08853 5.41263C5.86958 4.63158 7.13591 4.63158 7.91696 5.41263C8.47868 5.97434 8.63642 6.78706 8.39018 7.48974L9.49229 8.4603C11.0596 7.07654 13.38 7.00549 15.0247 8.24715L16.4266 6.84526ZM18.3086 6.03554C17.9181 5.64501 17.9181 5.01185 18.3086 4.62132C18.6991 4.2308 19.3323 4.2308 19.7228 4.62132C20.1134 5.01185 20.1134 5.64501 19.7228 6.03554C19.3323 6.42606 18.6991 6.42606 18.3086 6.03554ZM5.5 20.3325C4.67157 20.3325 4 19.6609 4 18.8325C4 18.0041 4.67157 17.3325 5.5 17.3325C6.32843 17.3325 7 18.0041 7 18.8325C7 19.6609 6.32843 20.3325 5.5 20.3325Z" fill="#324558"/>
</svg>
