<svg width="24" height="25" viewBox="0 0 24 25" fill="none" xmlns="http://www.w3.org/2000/svg">
<path d="M9 6.83334H11V9.33334H13.5V11.3333H11V13.8333H9V11.3333H6.5V9.33334H9V6.83334Z" fill="#324558"/>
<path fill-rule="evenodd" clip-rule="evenodd" d="M10 18.3333C12.024 18.3333 13.8724 17.5817 15.2814 16.3424L15.4763 17.0415C15.5225 17.2073 15.6107 17.3583 15.7324 17.48L20.585 22.3325L21.9992 20.9183L17.1466 16.0658C17.025 15.9441 16.8739 15.8559 16.7081 15.8096L16.0091 15.6147C17.2484 14.2057 18 12.3573 18 10.3333C18 5.91507 14.4183 2.33334 10 2.33334C5.58172 2.33334 2 5.91507 2 10.3333C2 14.7516 5.58172 18.3333 10 18.3333ZM10 16.3333C13.3137 16.3333 16 13.6471 16 10.3333C16 7.01964 13.3137 4.33334 10 4.33334C6.68629 4.33334 4 7.01964 4 10.3333C4 13.6471 6.68629 16.3333 10 16.3333Z" fill="#324558"/>
</svg>
