<svg width="24" height="24" viewBox="0 0 24 24" fill="none" xmlns="http://www.w3.org/2000/svg">
<path d="M13.5 9H6.5V11H13.5V9Z" fill="#324558"/>
<path fill-rule="evenodd" clip-rule="evenodd" d="M10 18C12.024 18 13.8724 17.2484 15.2814 16.0091L15.4763 16.7081C15.5225 16.8739 15.6107 17.025 15.7324 17.1466L20.585 21.9992L21.9992 20.585L17.1466 15.7324C17.025 15.6107 16.8739 15.5225 16.7081 15.4763L16.0091 15.2814C17.2484 13.8724 18 12.024 18 10C18 5.58172 14.4183 2 10 2C5.58172 2 2 5.58172 2 10C2 14.4183 5.58172 18 10 18ZM10 16C13.3137 16 16 13.3137 16 10C16 6.68629 13.3137 4 10 4C6.68629 4 4 6.68629 4 10C4 13.3137 6.68629 16 10 16Z" fill="#324558"/>
</svg>
