<svg width="24" height="24" viewBox="0 0 24 24" fill="none" xmlns="http://www.w3.org/2000/svg">
<path fill-rule="evenodd" clip-rule="evenodd" d="M8.60077 3C8.04848 3 7.60077 3.44772 7.60077 4V20C7.60077 20.5523 8.04849 21 8.60077 21L20 21C20.5523 21 21 20.5523 21 20V4.00002C21 3.44774 20.5523 3.00002 20 3.00002L8.60077 3ZM19 5.00002H9.61239V19H19V5.00002Z" fill="#B6C2CD"/>
<path fill-rule="evenodd" clip-rule="evenodd" d="M12.9207 8.41349C13.1546 8.18118 13.5322 8.18118 13.7662 8.41349L16.5112 11.1391C16.9894 11.614 16.9894 12.3857 16.5112 12.8605L13.7662 15.5861C13.5322 15.8184 13.1546 15.8184 12.9207 15.5861L12.3366 15.0062C12.2232 14.8935 12.1594 14.7403 12.1594 14.5804C12.1594 14.4205 12.2232 14.2673 12.3366 14.1546L14.5068 11.9998L12.3366 9.84497C12.2232 9.73233 12.1594 9.57907 12.1594 9.4192C12.1594 9.25933 12.2232 9.10608 12.3366 8.99344L12.9207 8.41349Z" fill="#324558"/>
<rect x="3.0914" y="3.24219" width="2.43281" height="17.5148" rx="0.6" fill="#B6C2CD"/>
</svg>
