<svg width="16" height="16" viewBox="0 0 16 16" fill="none" xmlns="http://www.w3.org/2000/svg">
<path fill-rule="evenodd" clip-rule="evenodd" d="M8 14C11.3137 14 14 11.3137 14 8C14 4.68629 11.3137 2 8 2C4.68629 2 2 4.68629 2 8C2 11.3137 4.68629 14 8 14ZM10.357 4.70017L11.2998 5.64298L8.94281 8L11.2998 10.357L10.357 11.2998L8 8.94281L5.64298 11.2998L4.70017 10.357L7.05719 8L4.70017 5.64298L5.64298 4.70017L8 7.05719L10.357 4.70017Z" fill="#CA2621"/>
<path fill-rule="evenodd" clip-rule="evenodd" d="M11.2999 5.64203L10.357 4.69922L8.00003 7.05624L5.643 4.69922L4.7002 5.64203L7.05722 7.99905L4.7002 10.3561L5.643 11.2989L8.00003 8.94186L10.357 11.2989L11.2999 10.3561L8.94284 7.99905L11.2999 5.64203Z" fill="white"/>
</svg>
