<svg width="24" height="24" viewBox="0 0 24 24" fill="none" xmlns="http://www.w3.org/2000/svg">
<path d="M0 12C0 5.37258 5.37258 0 12 0V0C18.6274 0 24 5.37258 24 12V12C24 18.6274 18.6274 24 12 24V24C5.37258 24 0 18.6274 0 12V12Z" fill="#242E42"/>
<path d="M5.689 9.2667C5.51122 9.13337 5.51122 8.8667 5.689 8.73337L8.80011 6.40004C9.01985 6.23523 9.33344 6.39202 9.33344 6.6667V8.33333H18.0001V9.66667H9.33344V11.3334C9.33344 11.6081 9.01985 11.7648 8.80011 11.6L5.689 9.2667Z" fill="white" fill-opacity="0.9"/>
<path d="M18.3112 15.2667C18.489 15.1334 18.489 14.8667 18.3112 14.7334L15.2001 12.4C14.9804 12.2352 14.6668 12.392 14.6668 12.6667V14.3333H6.00012V15.6667H14.6668V17.3334C14.6668 17.6081 14.9804 17.7648 15.2001 17.6L18.3112 15.2667Z" fill="white" fill-opacity="0.9"/>
</svg>
