<svg width="24" height="24" viewBox="0 0 24 24" fill="none" xmlns="http://www.w3.org/2000/svg">
<rect x="0.333333" y="0.333333" width="23.3333" height="23.3333" rx="3.66667" fill="white"/>
<rect x="0.333333" y="0.333333" width="23.3333" height="23.3333" rx="3.66667" fill="url(#paint0_linear_2651_162589)"/>
<rect x="0.333333" y="0.333333" width="23.3333" height="23.3333" rx="3.66667" stroke="#E3E9EF" stroke-width="0.666667"/>
<path d="M17.2595 9.27785C17.4077 9.38896 17.4077 9.61118 17.2595 9.72229L14.6669 11.6667C14.4838 11.8041 14.2225 11.6734 14.2225 11.4445V10.0556H7.00025V8.94449H14.2225V7.55563C14.2225 7.32672 14.4838 7.19606 14.6669 7.3334L17.2595 9.27785Z" fill="#324558"/>
<path d="M6.74109 14.2778C6.59294 14.389 6.59294 14.6112 6.74109 14.7223L9.33368 16.6667C9.5168 16.8041 9.77812 16.6734 9.77812 16.4445V15.0556H17.0003V13.9445H9.77812V12.5556C9.77812 12.3267 9.5168 12.1961 9.33368 12.3334L6.74109 14.2778Z" fill="#324558"/>
<defs>
<linearGradient id="paint0_linear_2651_162589" x1="12.3912" y1="24" x2="11.9804" y2="0.00628202" gradientUnits="userSpaceOnUse">
<stop stop-color="#F9FBFD"/>
<stop offset="1" stop-color="white"/>
</linearGradient>
</defs>
</svg>
