<svg width="24" height="24" viewBox="0 0 24 24" fill="none" xmlns="http://www.w3.org/2000/svg">
<path d="M9 2C8.44772 2 8 2.44772 8 3V7C8 7.55229 8.44772 8 9 8H11V12H4.5C3.94772 12 3.5 12.4477 3.5 13V16H3C2.44772 16 2 16.4477 2 17V21C2 21.5523 2.44772 22 3 22H6C6.55229 22 7 21.5523 7 21V17C7 16.4477 6.55229 16 6 16H5.5V14H11V16H10.5C9.94772 16 9.5 16.4477 9.5 17V21C9.5 21.5523 9.94772 22 10.5 22H13.5C14.0523 22 14.5 21.5523 14.5 21V17C14.5 16.4477 14.0523 16 13.5 16H13V14H18.5V16H18C17.4477 16 17 16.4477 17 17V21C17 21.5523 17.4477 22 18 22H21C21.5523 22 22 21.5523 22 21V17C22 16.4477 21.5523 16 21 16H20.5V13C20.5 12.4477 20.0523 12 19.5 12H13V8H15C15.5523 8 16 7.55229 16 7V3C16 2.44772 15.5523 2 15 2H9Z" fill="#324558"/>
</svg>
