<svg xmlns="http://www.w3.org/2000/svg" xmlns:xlink="http://www.w3.org/1999/xlink" viewBox="0 0 362.03 66.68"><defs><style>.cls-1{fill:#b5b5b5;}.cls-2{fill:url(#未命名的渐变_127);}</style><linearGradient id="未命名的渐变_127" x1="133.9" y1="-2.53" x2="127.01" y2="66.02" gradientUnits="userSpaceOnUse"><stop offset="0" stop-color="#00a971"/><stop offset="1" stop-color="#00a971"/></linearGradient></defs><g id="图层_2" data-name="图层 2"><g id="图层_1-2" data-name="图层 1"><path class="cls-1" d="M198.2,24.11h-1.93l-8.7-12-3,2.66v9.3H183V1.46h1.58V13.23l2.51-2.51,8.88-9.26h2L188.67,11Z"/><path class="cls-1" d="M202.35,7.27V18.18a5.33,5.33,0,0,0,1.07,3.69A4.33,4.33,0,0,0,206.74,23a5.79,5.79,0,0,0,4.42-1.52c1-1,1.42-2.66,1.42-5V7.27h1.52V24.11h-1.3l-.28-2.32h-.09q-1.65,2.63-5.85,2.63-5.75,0-5.74-6.15v-11Z"/><path class="cls-1" d="M226.85,6.94a6.39,6.39,0,0,1,5.32,2.23c1.2,1.48,1.79,3.64,1.79,6.5a9.88,9.88,0,0,1-1.88,6.47,6.47,6.47,0,0,1-5.29,2.28,7,7,0,0,1-3.24-.74,5.73,5.73,0,0,1-2.28-2.11h-.14l-.43,2.54h-1V0h1.53V6.06c0,.91,0,1.74-.06,2.51l-.05,1.32h.11a6.19,6.19,0,0,1,2.32-2.24A7,7,0,0,1,226.85,6.94Zm0,1.4c-2,0-3.4.56-4.26,1.7s-1.29,3-1.29,5.63v.26q0,3.81,1.34,5.47a5.09,5.09,0,0,0,4.18,1.66,4.8,4.8,0,0,0,4.15-1.93,9.29,9.29,0,0,0,1.4-5.5Q232.34,8.34,226.82,8.34Z"/><path class="cls-1" d="M245.43,24.42a7.34,7.34,0,0,1-5.73-2.26,9.14,9.14,0,0,1-2-6.34,9.81,9.81,0,0,1,2-6.45A6.53,6.53,0,0,1,245,6.94,5.78,5.78,0,0,1,249.68,9a8.59,8.59,0,0,1,1.72,5.64V15.9H239.26a8,8,0,0,0,1.62,5.3A5.71,5.71,0,0,0,245.43,23a13.45,13.45,0,0,0,2.53-.21,15.35,15.35,0,0,0,2.77-.86v1.39a12.64,12.64,0,0,1-2.63.85A15.67,15.67,0,0,1,245.43,24.42ZM245,8.31a5,5,0,0,0-3.9,1.6,7.54,7.54,0,0,0-1.72,4.62h10.41A7.3,7.3,0,0,0,248.5,10,4.2,4.2,0,0,0,245,8.31Z"/><path class="cls-1" d="M268.94,18.27a5.43,5.43,0,0,1-2.09,4.49,8.61,8.61,0,0,1-5.54,1.66,17.58,17.58,0,0,1-6.37-.91V21.93a16.23,16.23,0,0,0,6.25,1,7,7,0,0,0,4.42-1.27,4.08,4.08,0,0,0,1.64-3.36,3.79,3.79,0,0,0-.55-2.13,4.94,4.94,0,0,0-1.76-1.54,21,21,0,0,0-3.6-1.5,12.4,12.4,0,0,1-4.79-2.58,5.12,5.12,0,0,1-1.33-3.7,5.12,5.12,0,0,1,2-4.15,8,8,0,0,1,5.13-1.6,14.91,14.91,0,0,1,6,1.21l-.57,1.36a14.07,14.07,0,0,0-5.39-1.17,6.28,6.28,0,0,0-4,1.16,3.8,3.8,0,0,0-1.49,3.16,4.08,4.08,0,0,0,.46,2.06,4.15,4.15,0,0,0,1.49,1.45,20.29,20.29,0,0,0,3.57,1.54,19.62,19.62,0,0,1,4,1.77,5.65,5.65,0,0,1,1.94,2A5.29,5.29,0,0,1,268.94,18.27Z"/><path class="cls-1" d="M280.54,24.42a6.16,6.16,0,0,1-5.67-2.91h-.11l.05,1.3c0,.76.06,1.6.06,2.51v6.41h-1.53V7.27h1.3l.29,2.4H275a6.09,6.09,0,0,1,5.55-2.73,6.27,6.27,0,0,1,5.2,2.24c1.19,1.49,1.79,3.67,1.79,6.52a9.88,9.88,0,0,1-1.88,6.43A6.3,6.3,0,0,1,280.54,24.42Zm0-1.36a4.69,4.69,0,0,0,4-1.93,8.93,8.93,0,0,0,1.41-5.37q0-7.42-5.36-7.42A5.37,5.37,0,0,0,276.25,10c-.92,1.08-1.38,2.83-1.38,5.27v.5q0,3.94,1.32,5.64A5.19,5.19,0,0,0,280.51,23.06Z"/><path class="cls-1" d="M304,24.11V13.19a5.34,5.34,0,0,0-1.07-3.7,4.32,4.32,0,0,0-3.32-1.15,5.77,5.77,0,0,0-4.42,1.52c-.94,1-1.4,2.67-1.4,5v9.3h-1.54V0h1.54V7.67l-.08,2.15h.11a5.65,5.65,0,0,1,2.39-2.2,8.39,8.39,0,0,1,3.57-.68q5.75,0,5.74,6.15v11Z"/><path class="cls-1" d="M317.74,24.42A7.33,7.33,0,0,1,312,22.16a9.09,9.09,0,0,1-2-6.34,9.86,9.86,0,0,1,2-6.45,6.53,6.53,0,0,1,5.34-2.43A5.76,5.76,0,0,1,322,9a8.54,8.54,0,0,1,1.72,5.64V15.9H311.58a8,8,0,0,0,1.62,5.3A5.67,5.67,0,0,0,317.74,23a13.64,13.64,0,0,0,2.54-.21A15.05,15.05,0,0,0,323,22v1.39a12.64,12.64,0,0,1-2.63.85A15.67,15.67,0,0,1,317.74,24.42Zm-.45-16.11a5,5,0,0,0-3.9,1.6,7.6,7.6,0,0,0-1.72,4.62h10.41A7.3,7.3,0,0,0,320.81,10,4.2,4.2,0,0,0,317.29,8.31Z"/><path class="cls-1" d="M335,6.94a12.63,12.63,0,0,1,2.29.22L337,8.63a9.25,9.25,0,0,0-2.19-.26,4.24,4.24,0,0,0-3.53,1.83,7.41,7.41,0,0,0-1.38,4.61v9.3h-1.53V7.27h1.3l.15,3h.11a7.07,7.07,0,0,1,2.22-2.61A5.17,5.17,0,0,1,335,6.94Z"/><path class="cls-1" d="M347.51,24.42a7.34,7.34,0,0,1-5.73-2.26,9.14,9.14,0,0,1-2-6.34,9.86,9.86,0,0,1,2-6.45,6.56,6.56,0,0,1,5.35-2.43A5.78,5.78,0,0,1,351.76,9a8.59,8.59,0,0,1,1.71,5.64V15.9H341.34A8,8,0,0,0,343,21.2,5.71,5.71,0,0,0,347.51,23a13.52,13.52,0,0,0,2.53-.21,15.35,15.35,0,0,0,2.77-.86v1.39a12.53,12.53,0,0,1-2.64.85A15.46,15.46,0,0,1,347.51,24.42Zm-.45-16.11a5,5,0,0,0-3.9,1.6,7.54,7.54,0,0,0-1.73,4.62h10.42A7.37,7.37,0,0,0,350.58,10,4.2,4.2,0,0,0,347.06,8.31Z"/><path class="cls-1" d="M196.36,39.54h1.72L189.6,62.19h-1.39l-8.45-22.65h1.69L187.15,55c.87,2.33,1.45,4.07,1.75,5.24.21-.77.62-2,1.23-3.61Z"/><path class="cls-1" d="M200.68,40.67c0-1,.33-1.49,1-1.49a.86.86,0,0,1,.75.39,1.9,1.9,0,0,1,.27,1.1,2,2,0,0,1-.27,1.1.85.85,0,0,1-.75.4C201,42.17,200.68,41.67,200.68,40.67Zm1.75,21.52H200.9V45.35h1.53Z"/><path class="cls-1" d="M214.7,45a12.74,12.74,0,0,1,2.3.22l-.3,1.47a9.23,9.23,0,0,0-2.18-.26A4.22,4.22,0,0,0,211,48.28a7.41,7.41,0,0,0-1.38,4.61v9.3h-1.54V45.35h1.3l.16,3h.11a7.15,7.15,0,0,1,2.21-2.61A5.22,5.22,0,0,1,214.7,45Z"/><path class="cls-1" d="M224.87,61.14a11.8,11.8,0,0,0,2.54-.25v1.24a8,8,0,0,1-2.57.37,4.22,4.22,0,0,1-3.3-1.19,5.6,5.6,0,0,1-1.06-3.75V46.68H218v-.9l2.49-.7.78-3.81h.79v4.08H227v1.33h-4.94V57.34a4.84,4.84,0,0,0,.68,2.87A2.47,2.47,0,0,0,224.87,61.14Z"/><path class="cls-1" d="M232.38,45.35V56.26A5.33,5.33,0,0,0,233.45,60a4.33,4.33,0,0,0,3.32,1.15,5.78,5.78,0,0,0,4.42-1.51c.95-1,1.42-2.66,1.42-5V45.35h1.52V62.19h-1.3l-.28-2.32h-.09q-1.65,2.63-5.85,2.63-5.75,0-5.75-6.15v-11Z"/><path class="cls-1" d="M260,62.19l-.39-2.67h-.13a7.85,7.85,0,0,1-2.61,2.31,7.09,7.09,0,0,1-3.17.67,5.45,5.45,0,0,1-3.85-1.27,4.55,4.55,0,0,1-1.38-3.52,4.34,4.34,0,0,1,2.05-3.83,11.33,11.33,0,0,1,5.94-1.44l3.21-.09V51.23a5.72,5.72,0,0,0-1-3.62,3.77,3.77,0,0,0-3.14-1.22,10.48,10.48,0,0,0-4.85,1.3l-.57-1.34a12.89,12.89,0,0,1,5.48-1.3,5.49,5.49,0,0,1,4.15,1.44,6.36,6.36,0,0,1,1.37,4.5v11.2Zm-6.2-1.09a5.36,5.36,0,0,0,5.81-5.82V53.62l-2.95.13a11.19,11.19,0,0,0-5.06,1.1,3.21,3.21,0,0,0-1.51,2.92,3.16,3.16,0,0,0,1,2.46A4,4,0,0,0,253.8,61.1Z"/><path class="cls-1" d="M268.11,62.19h-1.53V38.08h1.53Z"/><path class="cls-1" d="M273.54,40.67c0-1,.32-1.49,1-1.49a.89.89,0,0,1,.76.39,1.9,1.9,0,0,1,.27,1.1,2,2,0,0,1-.27,1.1.88.88,0,0,1-.76.4C273.86,42.17,273.54,41.67,273.54,40.67Zm1.75,21.52h-1.54V45.35h1.54Z"/><path class="cls-1" d="M291.4,62.19h-12v-1l10-14.5h-9.26V45.35h11.26v1L281.31,60.83H291.4Z"/><path class="cls-1" d="M305.78,62.19l-.39-2.67h-.12a8,8,0,0,1-2.61,2.31,7.09,7.09,0,0,1-3.17.67,5.48,5.48,0,0,1-3.86-1.27,4.55,4.55,0,0,1-1.38-3.52,4.35,4.35,0,0,1,2.06-3.83,11.33,11.33,0,0,1,5.94-1.44l3.21-.09V51.23a5.72,5.72,0,0,0-1-3.62,3.77,3.77,0,0,0-3.14-1.22,10.48,10.48,0,0,0-4.85,1.3l-.58-1.34a13,13,0,0,1,5.49-1.3,5.45,5.45,0,0,1,4.14,1.44,6.31,6.31,0,0,1,1.37,4.5v11.2Zm-6.2-1.09a5.79,5.79,0,0,0,4.26-1.54,5.72,5.72,0,0,0,1.55-4.28V53.62l-2.94.13a11.19,11.19,0,0,0-5.06,1.1,3.21,3.21,0,0,0-1.51,2.92,3.12,3.12,0,0,0,1,2.46A4,4,0,0,0,299.58,61.1Z"/><path class="cls-1" d="M316.81,61.14a11.9,11.9,0,0,0,2.55-.25v1.24a8.16,8.16,0,0,1-2.58.37,4.21,4.21,0,0,1-3.29-1.19,5.54,5.54,0,0,1-1.06-3.75V46.68h-2.5v-.9l2.5-.7.77-3.81H314v4.08h4.95v1.33H314V57.34a4.84,4.84,0,0,0,.69,2.87A2.45,2.45,0,0,0,316.81,61.14Z"/><path class="cls-1" d="M322.78,40.67c0-1,.32-1.49,1-1.49a.86.86,0,0,1,.75.39,1.9,1.9,0,0,1,.27,1.1,2,2,0,0,1-.27,1.1.85.85,0,0,1-.75.4C323.1,42.17,322.78,41.67,322.78,40.67Zm1.75,21.52H323V45.35h1.53Z"/><path class="cls-1" d="M344.1,53.75a9.54,9.54,0,0,1-2,6.43,6.88,6.88,0,0,1-5.51,2.32,7.19,7.19,0,0,1-3.91-1.07,6.89,6.89,0,0,1-2.59-3.07,11.12,11.12,0,0,1-.9-4.61,9.52,9.52,0,0,1,2-6.43,6.91,6.91,0,0,1,5.49-2.3,6.79,6.79,0,0,1,5.45,2.33A9.64,9.64,0,0,1,344.1,53.75Zm-13.29,0a8.55,8.55,0,0,0,1.52,5.41,5.77,5.77,0,0,0,8.63,0,8.55,8.55,0,0,0,1.53-5.41A8.48,8.48,0,0,0,341,48.34a5.24,5.24,0,0,0-4.33-1.92,5.14,5.14,0,0,0-4.3,1.91A8.55,8.55,0,0,0,330.81,53.75Z"/><path class="cls-1" d="M360.51,62.19V51.27a5.34,5.34,0,0,0-1.07-3.7,4.32,4.32,0,0,0-3.32-1.15,5.77,5.77,0,0,0-4.42,1.52q-1.4,1.53-1.4,5v9.3h-1.53V45.35h1.3l.29,2.31h.09Q352.1,45,356.3,45,362,45,362,51.17v11Z"/><path d="M19.7.33V66.68H0V.33Zm37.8,0L40.09,30.47,57.5,66.68H35.32l-15-36.61L37.31.33Z"/><polygon points="106.85 23.89 86.31 66.67 68.14 66.67 80.83 40.26 51.97 40.26 72.47 0.34 90.89 0.34 78.79 23.89 106.85 23.89"/><path class="cls-2" d="M162.41.33,133.46,66.67,104.81.33h22.78L133.66,21,140.42.33Z"/></g></g></svg>