<svg width="24" height="24" viewBox="0 0 24 24" fill="none" xmlns="http://www.w3.org/2000/svg">
<path d="M12 4C10.3404 4 8.79892 4.50532 7.52089 5.37049L6.49055 3.65326C8.07035 2.60838 9.96413 2 12 2C17.5228 2 22 6.47715 22 12C22 14.3835 21.1661 16.5722 19.7742 18.2903C19.7742 18.2903 19.7742 18.2903 19.7742 18.2903L16.4544 12.7572C16.2544 12.424 16.4944 12 16.8831 12H20C20 7.58172 16.4183 4 12 4Z" fill="#324558"/>
<path d="M2 12C2 9.61651 2.83388 7.42778 4.22581 5.70964L5.33989 7.56643C5.33988 7.56645 5.3399 7.56642 5.33989 7.56643L7.54565 11.2428C7.74561 11.5761 7.50555 12.0001 7.1169 12.0001H4C4.00003 16.4183 7.58174 20 12 20C13.6596 20 15.2011 19.4947 16.4791 18.6295L17.5094 20.3467C15.9297 21.3916 14.0359 22 12 22C6.47717 22 2.00003 17.5228 2 12C2 12 2 12 2 12Z" fill="#324558"/>
</svg>
