<svg width="24" height="24" viewBox="0 0 24 24" fill="none" xmlns="http://www.w3.org/2000/svg">
<path d="M21.344 4.65027H14.344V6.65027H21.344V4.65027Z" fill="#B6C2CD"/>
<path d="M21.344 10.9996H12.344V12.9996H21.344V10.9996Z" fill="#B6C2CD"/>
<path d="M14.344 17.3152H21.344V19.3152H14.344V17.3152Z" fill="#B6C2CD"/>
<path fill-rule="evenodd" clip-rule="evenodd" d="M6.10258 4.98308C6.51667 4.53984 7.19525 4.53985 7.60934 4.98308L11.3844 9.02384L10.2853 10.2003L6.85596 6.52963L3.42663 10.2003L2.32751 9.02384L6.10258 4.98308Z" fill="#324558"/>
<path fill-rule="evenodd" clip-rule="evenodd" d="M6.1027 18.9831C6.51679 19.4263 7.19537 19.4263 7.60946 18.9831L11.3845 14.9423L10.2854 13.7658L6.85608 17.4365L3.42676 13.7658L2.32764 14.9423L6.1027 18.9831Z" fill="#324558"/>
</svg>
